# xmcd
# 
# Track frame offsets:
#     150
#     13769
#     32474
#     60752
#     76722
# 
# Disc length: 1362
# 
# Revision: 0
# Processed by: cddbd v1.5.2PL0 Copyright (c) Steve Scherf et al.
# Submitted via: BonkEnc v1.0.5
# 
DISCID=25055005
DTITLE=Guerilla Mind Society - Bushido
DYEAR=2005
DGENRE=Metal
TTITLE0=Ghad Daam
TTITLE1=Death Anthem
TTITLE2=American Limb
TTITLE3=Scent To The Frontlines
TTITLE4=The Pritty Song
EXTD=
EXTT0=
EXTT1=
EXTT2=
EXTT3=
EXTT4=
PLAYORDER=
